<?xml version="1.0" encoding="UTF-8" standalone="no"?>
<svg
   id="svg1130"
   version="1.1"
   viewBox="0 0 117.29493 68.609429"
   height="68.609428mm"
   width="117.29493mm"
   sodipodi:docname="pip-npm.svg"
   inkscape:version="1.3.2 (091e20ef0f, 2023-11-25)"
   xmlns:inkscape="http://www.inkscape.org/namespaces/inkscape"
   xmlns:sodipodi="http://sodipodi.sourceforge.net/DTD/sodipodi-0.dtd"
   xmlns="http://www.w3.org/2000/svg"
   xmlns:svg="http://www.w3.org/2000/svg"
   xmlns:rdf="http://www.w3.org/1999/02/22-rdf-syntax-ns#"
   xmlns:cc="http://creativecommons.org/ns#"
   xmlns:dc="http://purl.org/dc/elements/1.1/">
  <sodipodi:namedview
     id="namedview1"
     pagecolor="#ffffff"
     bordercolor="#000000"
     borderopacity="0.25"
     inkscape:showpageshadow="2"
     inkscape:pageopacity="0.0"
     inkscape:pagecheckerboard="true"
     inkscape:deskcolor="#d1d1d1"
     inkscape:document-units="mm"
     inkscape:zoom="1.0381345"
     inkscape:cx="345.33097"
     inkscape:cy="160.38384"
     inkscape:window-width="1920"
     inkscape:window-height="1011"
     inkscape:window-x="0"
     inkscape:window-y="0"
     inkscape:window-maximized="1"
     inkscape:current-layer="layer3" />
  <defs
     id="defs1124">
    <inkscape:path-effect
       effect="fillet_chamfer"
       id="path-effect7"
       is_visible="true"
       lpeversion="1"
       nodesatellites_param="F,0,0,1,0,2.1166667,0,1 @ F,0,0,1,0,2.1166667,0,1 @ F,0,0,1,0,2.1166667,0,1 @ F,0,0,1,0,2.1166667,0,1 @ F,0,0,1,0,2.1166667,0,1 @ F,0,0,1,0,2.1166667,0,1 @ F,0,0,1,0,2.1166667,0,1 @ F,0,0,1,0,2.1166667,0,1 @ F,0,0,1,0,2.1166667,0,1 @ F,0,0,1,0,2.1166667,0,1 @ F,0,0,1,0,2.1166667,0,1 @ F,0,0,1,0,2.1166667,0,1 @ F,0,0,1,0,2.1166667,0,1 @ F,0,0,1,0,2.1166667,0,1 @ F,0,0,1,0,2.1166667,0,1 @ F,0,0,1,0,2.1166667,0,1 @ F,0,0,1,0,2.1166667,0,1 @ F,0,0,1,0,2.1166667,0,1"
       radius="8"
       unit="px"
       method="bezier"
       mode="F"
       chamfer_steps="1"
       flexible="false"
       use_knot_distance="true"
       apply_no_radius="true"
       apply_with_radius="true"
       only_selected="false"
       hide_knots="false" />
    <inkscape:path-effect
       effect="offset"
       id="path-effect6"
       is_visible="true"
       lpeversion="1.2"
       linejoin_type="miter"
       unit="mm"
       offset="2.6"
       miter_limit="4"
       attempt_force_join="false"
       update_on_knot_move="true" />
  </defs>
  <metadata
     id="metadata1127">
    <rdf:RDF>
      <cc:Work
         rdf:about="">
        <dc:format>image/svg+xml</dc:format>
        <dc:type
           rdf:resource="http://purl.org/dc/dcmitype/StillImage" />
      </cc:Work>
    </rdf:RDF>
  </metadata>
  <g
     inkscape:groupmode="layer"
     id="layer3"
     inkscape:label="Sticker edge"
     style="display:inline"
     transform="translate(2.600283,2.542161)">
    <path
       id="path5"
       style="color:#000000;display:inline;fill:#ffffff;fill-opacity:1;stroke:none;-inkscape-stroke:none;paint-order:stroke markers fill"
       d="m 80.783203,54.610807 v 3.803776 c 0,1.169003 -0.947664,2.116667 -2.116667,2.116667 H 41.825651 c -1.169003,0 -2.116667,0.947664 -2.116667,2.116667 v 6.249088 31.712895 18.33203 c 0,1.169 0.947664,2.11666 2.116667,2.11666 h 32.413151 c 1.169003,0 2.116667,-0.94766 2.116667,-2.11666 v -3.61628 c 0,-1.169 0.947664,-2.11667 2.116666,-2.11667 h 11.745183 c 1.169002,0 2.116666,-0.0288 2.116666,-0.0644 h 9.928256 c 1.169,0 2.11667,0.94767 2.11667,2.11667 v 3.72565 c 0,1.169 0.94766,2.11667 2.11666,2.11667 h 32.41315 c 1.16901,0 2.11667,-0.94767 2.11667,-2.11667 v -3.61628 c 0,-1.169 0.94766,-2.11666 2.11667,-2.11666 h 11.74518 c 1.169,0 2.11667,-0.94767 2.11667,-2.11667 V 62.692839 c 0,-1.169003 -0.94767,-2.116667 -2.11667,-2.116667 h -35.35651 c -1.169,0 -2.11667,-0.947664 -2.11667,-2.116667 v -3.848698 c 0,-1.169002 -0.94766,-2.116666 -2.11666,-2.116666 H 82.89987 c -1.169003,0 -2.116667,0.947664 -2.116667,2.116666 z"
       transform="translate(-42.309267,-55.036302)"
       inkscape:path-effect="#path-effect6;#path-effect7"
       inkscape:original-d="m 83.382729,55.093663 v 7.882723 0.154512 H 42.30875 v 7.882723 31.712789 15.73238 h 31.447176 v -7.84965 h 15.978353 v -0.0641 H 106.9787 v 7.95869 h 31.44718 v -7.84965 h 15.97835 V 63.175857 H 114.8144 v -8.082194 z" />
  </g>
  <g
     inkscape:groupmode="layer"
     id="layer2"
     inkscape:label="Logo"
     style="display:inline"
     transform="translate(2.600283,2.542161)">
    <path
       id="rect1143"
       d="m 50.191767,71.013753 v 31.713317 7.84913 h 15.682248 v -7.84913 H 81.850816 V 71.013753 Z m 15.835725,7.951451 h 7.851201 v 15.868801 h -7.851201 z"
       style="opacity:1;fill:#ffffff;fill-opacity:1;stroke:#cb3837;stroke-width:15.765;stroke-miterlimit:4;stroke-dasharray:none;stroke-opacity:1;paint-order:stroke markers fill"
       transform="translate(-42.309267,-55.036302)" />
    <path
       transform="matrix(0.26458333,0,0,0.26458333,-42.309267,-55.036302)"
       id="path1168"
       d="m 404.15234,284.95117 h -59.21093 v 103.06836 h 59.21093 z"
       style="opacity:1;fill:#ffffff;fill-opacity:1;stroke:#cb3837;stroke-width:60.0244;stroke-miterlimit:4;stroke-dasharray:none;stroke-opacity:1;paint-order:stroke markers fill" />
    <path
       transform="matrix(0.26458333,0,0,0.26458333,-42.309267,-55.036302)"
       id="rect1161"
       d="m 344.94141,238.02344 v 30.375 h 59.21093 v -30.375 z"
       style="opacity:1;fill:#ffffff;fill-opacity:1;stroke:#cb3837;stroke-width:60.0244;stroke-miterlimit:4;stroke-dasharray:none;stroke-opacity:1;paint-order:stroke markers fill" />
    <path
       id="rect1143-1"
       d="m 114.86202,71.058074 v 31.713276 7.84913 h 15.68234 v -7.84913 h 15.97689 V 71.058074 Z m 15.83582,7.951451 h 7.85124 v 15.868796 h -7.85124 z"
       style="opacity:1;fill:#ffffff;fill-opacity:1;stroke:#cb3837;stroke-width:15.765;stroke-miterlimit:4;stroke-dasharray:none;stroke-opacity:1;paint-order:stroke markers fill"
       transform="translate(-42.309267,-55.036302)" />
  </g>
</svg>
